<?xml version="1.0" encoding="UTF-8"?>
<!DOCTYPE svg PUBLIC "-//W3C//DTD SVG 1.1//EN" "http://www.w3.org/Graphics/SVG/1.1/DTD/svg11.dtd">
<svg xmlns="http://www.w3.org/2000/svg" version="1.1" width="114px" height="100px" style="shape-rendering:geometricPrecision; text-rendering:geometricPrecision; image-rendering:optimizeQuality; fill-rule:evenodd; clip-rule:evenodd" xmlns:xlink="http://www.w3.org/1999/xlink">
<g><path style="opacity:0.102" fill="#41c854" d="M 46.5,15.5 C 49.5476,15.494 50.0476,16.494 48,18.5C 46.9614,17.7562 46.4614,16.7562 46.5,15.5 Z"/></g>
<g><path style="opacity:0.74" fill="#3fbf56" d="M 82.5,26.5 C 83.1667,27.8333 83.8333,27.8333 84.5,26.5C 86.7996,27.5339 87.4663,26.8672 86.5,24.5C 86.9767,23.5224 87.6433,22.6891 88.5,22C 86.9632,20.8904 86.2965,19.3904 86.5,17.5C 90.5365,17.1758 93.2032,18.8424 94.5,22.5C 91.4469,23.2795 89.7803,25.2795 89.5,28.5C 90.325,29.3857 91.325,29.719 92.5,29.5C 92.372,31.6547 92.872,33.6547 94,35.5C 94.6667,34.8333 95.3333,34.1667 96,33.5C 98.1667,36.3333 100.333,39.1667 102.5,42C 105.398,42.436 107.731,43.6026 109.5,45.5C 106.087,46.758 102.754,46.4246 99.5,44.5C 98.3279,44.9186 97.3279,45.5853 96.5,46.5C 98.4899,47.4981 100.49,48.4981 102.5,49.5C 102.553,57.234 106.22,60.5673 113.5,59.5C 113.5,60.5 113.5,61.5 113.5,62.5C 109.753,62.6076 106.086,62.1076 102.5,61C 99.7216,59.4711 97.055,58.1377 94.5,57C 94.1667,57.3333 93.8333,57.6667 93.5,58C 98.8926,62.5023 100.393,68.0023 98,74.5C 93.9461,70.7246 91.7794,66.058 91.5,60.5C 90.7261,59.2888 89.8928,59.2888 89,60.5C 88.3828,59.5509 88.5494,58.7175 89.5,58C 88.2575,57.6886 87.2575,58.1886 86.5,59.5C 85.1427,55.9837 82.8094,54.9837 79.5,56.5C 77.9707,56.4712 76.804,55.8045 76,54.5C 74.9326,55.1905 73.7659,55.6905 72.5,56C 74.4257,56.1245 76.259,56.9578 78,58.5C 79.1097,60.3969 79.2764,62.2302 78.5,64C 79.9506,63.7374 81.2839,63.9041 82.5,64.5C 81.9646,66.2705 81.1313,66.6039 80,65.5C 79.5172,66.448 79.3505,67.448 79.5,68.5C 81.5988,67.7691 83.5988,67.7691 85.5,68.5C 84.7221,70.256 83.7221,71.9226 82.5,73.5C 81.3588,72.661 80.0255,71.9943 78.5,71.5C 77.6184,72.7598 76.6184,73.9264 75.5,75C 76.5171,76.0495 76.6838,77.2161 76,78.5C 74,76.5 72,74.5 70,72.5C 69.9519,74.5441 70.4519,76.5441 71.5,78.5C 70.3112,79.4287 68.9778,79.762 67.5,79.5C 67.9804,76.3148 67.3137,73.4815 65.5,71C 64.8333,70.3333 64.1667,70.3333 63.5,71C 64.7112,71.8928 64.7112,72.7261 63.5,73.5C 61.2876,69.8903 60.2876,70.557 60.5,75.5C 58.7662,77.0904 57.5995,79.0904 57,81.5C 55.049,79.8629 55.2157,78.3629 57.5,77C 55.4476,76.0701 53.9476,74.5701 53,72.5C 49.4655,76.683 49.7988,80.3497 54,83.5C 54.6838,84.7839 54.5171,85.9505 53.5,87C 49.693,86.0414 45.693,85.5414 41.5,85.5C 41.7851,89.7166 39.7851,91.8832 35.5,92C 33.4746,93.194 33.1413,94.694 34.5,96.5C 34.0431,97.2975 33.3764,97.6309 32.5,97.5C 30.2824,95.7917 28.1157,93.7917 26,91.5C 21.4555,93.7092 16.6222,94.7092 11.5,94.5C 11.297,92.3618 10.297,90.6951 8.5,89.5C 9,89.1667 9.5,88.8333 10,88.5C 14.3031,92.3201 18.8031,92.4868 23.5,89C 24.1043,86.5325 25.4376,84.5325 27.5,83C 26.6198,81.6439 26.2865,80.1439 26.5,78.5C 25.325,78.281 24.325,78.6143 23.5,79.5C 21.6402,84.6001 17.9735,86.9334 12.5,86.5C 12.7458,83.5299 14.4124,82.1966 17.5,82.5C 17.1924,80.076 17.5258,77.7427 18.5,75.5C 19.086,75.7093 19.586,76.0426 20,76.5C 20.4974,73.854 20.6641,71.1873 20.5,68.5C 17.3864,67.3591 14.5531,68.0258 12,70.5C 11.5,70 11,69.5 10.5,69C 12.0429,67.1217 13.8762,65.6217 16,64.5C 16.1953,62.7928 16.1953,61.1261 16,59.5C 17.3561,58.6198 18.8561,58.2865 20.5,58.5C 20.3433,59.8734 20.51,61.2068 21,62.5C 22.4964,60.0134 24.3297,57.8467 26.5,56C 25.2247,53.9291 23.3914,52.4291 21,51.5C 21.0048,47.4084 20.8382,43.4084 20.5,39.5C 18.6536,39.7778 17.3202,39.1112 16.5,37.5C 17.325,36.6143 18.325,36.281 19.5,36.5C 19.281,35.325 19.6143,34.325 20.5,33.5C 22.1461,34.7786 23.3128,36.4453 24,38.5C 26.5552,34.802 30.0552,32.4686 34.5,31.5C 33.5721,30.2322 33.4054,28.8989 34,27.5C 35.5,26 37,24.5 38.5,23C 36.2827,21.7246 33.9494,20.7246 31.5,20C 34.0436,17.9121 36.377,18.0787 38.5,20.5C 39.6551,23.4749 41.3218,26.1416 43.5,28.5C 44.5836,27.3349 45.4169,26.0016 46,24.5C 46.8178,29.7937 47.3178,29.7937 47.5,24.5C 49.8568,24.6633 52.1902,24.4966 54.5,24C 60.2368,10.5201 70.2368,5.85348 84.5,10C 89.6511,12.0764 94.6511,14.4097 99.5,17C 98.8921,17.8699 98.0588,18.3699 97,18.5C 89.8188,14.4396 82.1522,11.7729 74,10.5C 65.4004,11.7641 59.9004,16.5975 57.5,25C 60.3025,25.0242 61.6358,23.5242 61.5,20.5C 66.7444,19.5376 72.2444,18.2042 78,16.5C 79.4397,17.1476 80.9397,17.4809 82.5,17.5C 82.822,19.7224 82.1554,21.5557 80.5,23C 77.3801,23.5853 74.7134,24.9186 72.5,27C 71.8132,28.1618 71.6466,29.3284 72,30.5C 79.222,35.4208 81.3886,34.0874 78.5,26.5C 79.8333,26.5 81.1667,26.5 82.5,26.5 Z M 56.5,27.5 C 63.0919,28.5716 63.0919,29.5716 56.5,30.5C 56.5,29.5 56.5,28.5 56.5,27.5 Z M 67.5,30.5 C 68.2891,30.7828 68.9558,31.2828 69.5,32C 68.184,32.5281 67.5173,32.0281 67.5,30.5 Z M 46.5,31.5 C 47.2891,31.7828 47.9558,32.2828 48.5,33C 47.184,33.5281 46.5173,33.0281 46.5,31.5 Z M 86.5,33.5 C 87.6266,34.1217 88.6266,34.955 89.5,36C 87.5106,36.5192 86.5106,35.6859 86.5,33.5 Z M 86.5,52.5 C 88.6859,52.5106 89.5192,53.5106 89,55.5C 87.9326,54.8095 86.7659,54.3095 85.5,54C 86.056,53.6174 86.3893,53.1174 86.5,52.5 Z M 44.5,80.5 C 45.5045,79.3172 46.3378,77.9839 47,76.5C 48.9183,79.0515 48.085,80.3849 44.5,80.5 Z M 29.5,89.5 C 30.7733,90.0768 30.7733,90.7435 29.5,91.5C 28.537,91.0302 28.537,90.3635 29.5,89.5 Z"/></g>
<g><path style="opacity:0.043" fill="#4fdb5d" d="M 38.5,20.5 C 38.9483,18.5354 39.9483,18.2021 41.5,19.5C 40.675,20.3857 39.675,20.719 38.5,20.5 Z"/></g>
<g><path style="opacity:0.004" fill="#00ff00" d="M 83.5,21.5 C 83.8966,20.475 84.5632,20.3083 85.5,21C 84.9056,21.4643 84.2389,21.631 83.5,21.5 Z"/></g>
<g><path style="opacity:0.082" fill="#39b446" d="M 49.5,20.5 C 50.675,20.281 51.675,20.6143 52.5,21.5C 50.9483,22.7979 49.9483,22.4646 49.5,20.5 Z"/></g>
<g><path style="opacity:0.443" fill="#42c159" d="M 94.5,22.5 C 96.9495,19.8654 98.6162,20.5321 99.5,24.5C 97.9547,25.4519 96.288,25.7852 94.5,25.5C 94.5,24.5 94.5,23.5 94.5,22.5 Z"/></g>
<g><path style="opacity:0.004" fill="#32d244" d="M 84.5,26.5 C 83.8333,26.5 83.1667,26.5 82.5,26.5C 82.7373,22.7113 83.4039,22.7113 84.5,26.5 Z"/></g>
<g><path style="opacity:0.488" fill="#3fc054" d="M 102.5,25.5 C 106.8,25.8153 108.467,28.1486 107.5,32.5C 112.326,33.8066 112.493,35.4733 108,37.5C 106.124,36.381 105.291,34.7144 105.5,32.5C 100.391,31.8314 99.3911,29.4981 102.5,25.5 Z"/></g>
<g><path style="opacity:0.09" fill="#419f4a" d="M 75.5,28.5 C 77.332,29.1405 77.6653,30.1405 76.5,31.5C 74.4807,30.8671 74.1474,29.8671 75.5,28.5 Z"/></g>
<g><path style="opacity:0.063" fill="#43c44f" d="M 16.5,42.5 C 18.9732,42.9473 19.1399,43.9473 17,45.5C 15.2716,44.6477 15.105,43.6477 16.5,42.5 Z"/></g>
<g><path style="opacity:0.043" fill="#4abe4f" d="M 113.5,42.5 C 113.5,43.1667 113.5,43.8333 113.5,44.5C 112.833,44.8333 112.167,45.1667 111.5,45.5C 110.326,43.6322 110.993,42.6322 113.5,42.5 Z"/></g>
<g><path style="opacity:0.094" fill="#3ebf4b" d="M 109.5,45.5 C 110.167,45.5 110.833,45.5 111.5,45.5C 111.338,47.8244 110.172,49.4911 108,50.5C 107.308,49.9747 106.808,49.3081 106.5,48.5C 107.993,47.8589 108.993,46.8589 109.5,45.5 Z"/></g>
<g><path style="opacity:0.353" fill="#40c44f" d="M 12.5,46.5 C 15.5476,46.494 16.0476,47.494 14,49.5C 12.9614,48.7562 12.4614,47.7562 12.5,46.5 Z"/></g>
<g><path style="opacity:0.447" fill="#40bf53" d="M 7.5,50.5 C 11.5,49.8333 13.1667,51.5 12.5,55.5C 8.5,56.1667 6.83333,54.5 7.5,50.5 Z"/></g>
<g><path style="opacity:0.157" fill="#47bc54" d="M 17.5,49.5 C 19.4646,49.9483 19.7979,50.9483 18.5,52.5C 17.6143,51.675 17.281,50.675 17.5,49.5 Z"/></g>
<g><path style="opacity:0.125" fill="#4acb5f" d="M 106.5,52.5 C 108.973,52.9473 109.14,53.9473 107,55.5C 105.272,54.6477 105.105,53.6477 106.5,52.5 Z"/></g>
<g><path style="opacity:0.192" fill="#40c155" d="M 18.5,54.5 C 20.9732,54.9473 21.1399,55.9473 19,57.5C 17.2716,56.6477 17.105,55.6477 18.5,54.5 Z"/></g>
<g><path style="opacity:0.556" fill="#40c25c" d="M 101.5,63.5 C 103.636,64.7189 105.969,65.5522 108.5,66C 110.515,67.5553 110.848,69.3886 109.5,71.5C 106.755,72.9753 104.588,72.3087 103,69.5C 102.187,67.5643 101.687,65.5643 101.5,63.5 Z"/></g>
<g><path style="opacity:0.341" fill="#43c76a" d="M 82.5,73.5 C 83.9143,75.5983 83.2476,76.5983 80.5,76.5C 80.2852,74.8212 80.9519,73.8212 82.5,73.5 Z"/></g>
<g><path style="opacity:0.51" fill="#40bf56" d="M 60.5,75.5 C 62.1172,76.038 63.7839,76.3713 65.5,76.5C 65.5,78.5 65.5,80.5 65.5,82.5C 61.1996,82.1847 59.533,79.8514 60.5,75.5 Z"/></g>
<g><path style="opacity:0.381" fill="#40be57" d="M -0.5,77.5 C 4.24423,77.0384 5.24423,78.5384 2.5,82C 1.55198,82.4828 0.551975,82.6495 -0.5,82.5C -0.5,80.8333 -0.5,79.1667 -0.5,77.5 Z"/></g>
<g><path style="opacity:0.359" fill="#45c76b" d="M 10.5,78.5 C 13.5476,78.494 14.0476,79.494 12,81.5C 10.9614,80.7562 10.4614,79.7562 10.5,78.5 Z"/></g>
<g><path style="opacity:0.284" fill="#3dc154" d="M 72.5,81.5 C 73.5,81.5 74.5,81.5 75.5,81.5C 75.4261,85.5412 74.0928,86.2079 71.5,83.5C 71.8627,82.8165 72.1961,82.1499 72.5,81.5 Z"/></g>
<g><path style="opacity:0.012" fill="#3da037" d="M 62.5,84.5 C 64.332,85.1405 64.6653,86.1405 63.5,87.5C 62.6143,86.675 62.281,85.675 62.5,84.5 Z"/></g>
<g><path style="opacity:0.024" fill="#3bca47" d="M 57.5,89.5 C 60.7973,89.3287 61.1306,89.9954 58.5,91.5C 57.7025,91.0431 57.3691,90.3764 57.5,89.5 Z"/></g>
<g><path style="opacity:0.314" fill="#40c055" d="M 26.5,99.5 C 25.5,99.5 24.5,99.5 23.5,99.5C 22.0243,97.7704 22.3576,96.4371 24.5,95.5C 26.1112,96.3202 26.7778,97.6536 26.5,99.5 Z"/></g>
<g><path style="opacity:0.235" fill="#3ebe56" d="M 32.5,97.5 C 32.5,98.1667 32.5,98.8333 32.5,99.5C 31.5,99.5 30.5,99.5 29.5,99.5C 29.6322,96.9931 30.6322,96.3264 32.5,97.5 Z"/></g>
</svg>
