<?xml version="1.0" encoding="UTF-8"?>
<!DOCTYPE svg PUBLIC "-//W3C//DTD SVG 1.1//EN" "http://www.w3.org/Graphics/SVG/1.1/DTD/svg11.dtd">
<svg xmlns="http://www.w3.org/2000/svg" version="1.1" width="114px" height="100px" style="shape-rendering:geometricPrecision; text-rendering:geometricPrecision; image-rendering:optimizeQuality; fill-rule:evenodd; clip-rule:evenodd" xmlns:xlink="http://www.w3.org/1999/xlink">
<g><path style="opacity:0.235" fill="#3ebe56" d="M 80.5,-0.5 C 81.5,-0.5 82.5,-0.5 83.5,-0.5C 83.3678,2.00691 82.3678,2.67358 80.5,1.5C 80.5,0.833333 80.5,0.166667 80.5,-0.5 Z"/></g>
<g><path style="opacity:0.314" fill="#40c055" d="M 86.5,-0.5 C 87.5,-0.5 88.5,-0.5 89.5,-0.5C 90.9757,1.22955 90.6424,2.56289 88.5,3.5C 86.8888,2.67975 86.2222,1.34642 86.5,-0.5 Z"/></g>
<g><path style="opacity:0.74" fill="#3fbf56" d="M 80.5,1.5 C 82.7176,3.20833 84.8843,5.20833 87,7.5C 91.5445,5.29083 96.3778,4.29083 101.5,4.5C 101.703,6.63824 102.703,8.30491 104.5,9.5C 104,9.83333 103.5,10.1667 103,10.5C 98.6969,6.67988 94.1969,6.51322 89.5,10C 88.8957,12.4675 87.5624,14.4675 85.5,16C 86.3802,17.3561 86.7135,18.8561 86.5,20.5C 87.675,20.719 88.675,20.3857 89.5,19.5C 91.3598,14.3999 95.0265,12.0666 100.5,12.5C 100.254,15.4701 98.5876,16.8034 95.5,16.5C 95.8076,18.924 95.4742,21.2573 94.5,23.5C 93.914,23.2907 93.414,22.9574 93,22.5C 92.5026,25.146 92.3359,27.8127 92.5,30.5C 95.6136,31.6409 98.4469,30.9742 101,28.5C 101.5,29 102,29.5 102.5,30C 100.957,31.8783 99.1238,33.3783 97,34.5C 96.8047,36.2072 96.8047,37.8739 97,39.5C 95.6439,40.3802 94.1439,40.7135 92.5,40.5C 92.6567,39.1266 92.49,37.7932 92,36.5C 90.5036,38.9866 88.6703,41.1533 86.5,43C 87.7753,45.0709 89.6086,46.5709 92,47.5C 91.9952,51.5916 92.1618,55.5916 92.5,59.5C 94.3464,59.2222 95.6798,59.8888 96.5,61.5C 95.675,62.3857 94.675,62.719 93.5,62.5C 93.719,63.675 93.3857,64.675 92.5,65.5C 90.8539,64.2214 89.6872,62.5547 89,60.5C 86.4448,64.198 82.9448,66.5314 78.5,67.5C 79.4279,68.7678 79.5946,70.1011 79,71.5C 77.5,73 76,74.5 74.5,76C 76.7173,77.2754 79.0506,78.2754 81.5,79C 78.9564,81.0879 76.623,80.9213 74.5,78.5C 73.3449,75.5251 71.6782,72.8584 69.5,70.5C 68.4164,71.6651 67.5831,72.9984 67,74.5C 66.1822,69.2063 65.6822,69.2063 65.5,74.5C 63.1432,74.3367 60.8098,74.5034 58.5,75C 52.7632,88.4799 42.7632,93.1465 28.5,89C 23.3489,86.9236 18.3489,84.5903 13.5,82C 14.1079,81.1301 14.9412,80.6301 16,80.5C 23.1812,84.5604 30.8478,87.2271 39,88.5C 47.5996,87.2359 53.0996,82.4025 55.5,74C 52.6975,73.9758 51.3642,75.4758 51.5,78.5C 46.2556,79.4624 40.7556,80.7958 35,82.5C 33.5603,81.8524 32.0603,81.5191 30.5,81.5C 30.178,79.2776 30.8446,77.4443 32.5,76C 35.6199,75.4147 38.2866,74.0814 40.5,72C 41.1868,70.8382 41.3534,69.6716 41,68.5C 33.778,63.5792 31.6114,64.9126 34.5,72.5C 33.1667,72.5 31.8333,72.5 30.5,72.5C 29.8333,71.1667 29.1667,71.1667 28.5,72.5C 26.2004,71.4661 25.5337,72.1328 26.5,74.5C 26.0233,75.4776 25.3567,76.3109 24.5,77C 26.0368,78.1096 26.7035,79.6096 26.5,81.5C 22.4635,81.8242 19.7968,80.1576 18.5,76.5C 21.5531,75.7205 23.2197,73.7205 23.5,70.5C 22.675,69.6143 21.675,69.281 20.5,69.5C 20.628,67.3453 20.128,65.3453 19,63.5C 18.3333,64.1667 17.6667,64.8333 17,65.5C 14.8333,62.6667 12.6667,59.8333 10.5,57C 7.60211,56.564 5.26878,55.3974 3.5,53.5C 6.91303,52.242 10.2464,52.5754 13.5,54.5C 14.6721,54.0814 15.6721,53.4147 16.5,52.5C 14.5101,51.5019 12.5101,50.5019 10.5,49.5C 10.4467,41.766 6.78004,38.4327 -0.5,39.5C -0.5,38.5 -0.5,37.5 -0.5,36.5C 3.247,36.3924 6.91367,36.8924 10.5,38C 13.2784,39.5289 15.945,40.8623 18.5,42C 18.8333,41.6667 19.1667,41.3333 19.5,41C 14.1074,36.4977 12.6074,30.9977 15,24.5C 19.0539,28.2754 21.2206,32.942 21.5,38.5C 22.2739,39.7112 23.1072,39.7112 24,38.5C 24.6172,39.4491 24.4506,40.2825 23.5,41C 24.7425,41.3114 25.7425,40.8114 26.5,39.5C 27.8573,43.0163 30.1906,44.0163 33.5,42.5C 35.0293,42.5288 36.196,43.1955 37,44.5C 38.0674,43.8095 39.2341,43.3095 40.5,43C 38.5743,42.8755 36.741,42.0422 35,40.5C 33.8903,38.6031 33.7236,36.7698 34.5,35C 33.0494,35.2626 31.7161,35.0959 30.5,34.5C 31.0354,32.7295 31.8687,32.3961 33,33.5C 33.4828,32.552 33.6495,31.552 33.5,30.5C 31.4012,31.2309 29.4012,31.2309 27.5,30.5C 28.2779,28.744 29.2779,27.0774 30.5,25.5C 31.6412,26.339 32.9745,27.0057 34.5,27.5C 35.3816,26.2402 36.3816,25.0736 37.5,24C 36.4829,22.9505 36.3162,21.7839 37,20.5C 39,22.5 41,24.5 43,26.5C 43.0481,24.4559 42.5481,22.4559 41.5,20.5C 42.6888,19.5713 44.0222,19.238 45.5,19.5C 45.0196,22.6852 45.6863,25.5185 47.5,28C 48.1667,28.6667 48.8333,28.6667 49.5,28C 48.2888,27.1072 48.2888,26.2739 49.5,25.5C 51.7124,29.1097 52.7124,28.443 52.5,23.5C 54.2338,21.9096 55.4005,19.9096 56,17.5C 57.951,19.1371 57.7843,20.6371 55.5,22C 57.5524,22.9299 59.0524,24.4299 60,26.5C 63.5345,22.317 63.2012,18.6503 59,15.5C 58.3162,14.2161 58.4829,13.0495 59.5,12C 63.307,12.9586 67.307,13.4586 71.5,13.5C 71.2149,9.28344 73.2149,7.11678 77.5,7C 79.5254,5.80601 79.8587,4.30601 78.5,2.5C 78.9569,1.70245 79.6236,1.36912 80.5,1.5 Z M 82.5,7.5 C 85.0009,7.51092 85.1676,8.17759 83,9.5C 82.5357,8.90558 82.369,8.23891 82.5,7.5 Z M 68.5,18.5 C 67.4955,19.6828 66.6622,21.0161 66,22.5C 64.0817,19.9485 64.915,18.6151 68.5,18.5 Z M 23.5,43.5 C 24.766,44.0899 26.0993,44.5899 27.5,45C 25.2963,47.0688 23.963,46.5688 23.5,43.5 Z M 23.5,63.5 C 25.4959,62.3122 26.3293,62.9789 26,65.5C 25.2917,64.6195 24.4584,63.9528 23.5,63.5 Z M 64.5,66.5 C 65.0768,65.2267 65.7435,65.2267 66.5,66.5C 66.0302,67.463 65.3635,67.463 64.5,66.5 Z M 43.5,67.5 C 44.0768,66.2267 44.7435,66.2267 45.5,67.5C 45.0302,68.463 44.3635,68.463 43.5,67.5 Z M 52.5,68.5 C 53.8333,68.5 55.1667,68.5 56.5,68.5C 56.5,69.5 56.5,70.5 56.5,71.5C 54.6916,71.5086 53.0249,71.0086 51.5,70C 52.056,69.6174 52.3893,69.1174 52.5,68.5 Z"/></g>
<g><path style="opacity:0.027" fill="#40d344" d="M 53.5,7.5 C 54.3764,7.36912 55.0431,7.70245 55.5,8.5C 53.1916,9.87342 52.5249,9.54009 53.5,7.5 Z"/></g>
<g><path style="opacity:0.012" fill="#3da037" d="M 48.5,11.5 C 50.2252,11.8425 50.7252,12.8425 50,14.5C 48.9614,13.7562 48.4614,12.7562 48.5,11.5 Z"/></g>
<g><path style="opacity:0.284" fill="#3dc154" d="M 38.5,13.5 C 39.9953,13.4148 40.9953,14.0815 41.5,15.5C 40.6798,17.1112 39.3464,17.7778 37.5,17.5C 37.4326,16.0413 37.7659,14.7079 38.5,13.5 Z"/></g>
<g><path style="opacity:0.381" fill="#40bd57" d="M 113.5,16.5 C 113.5,18.1667 113.5,19.8333 113.5,21.5C 108.756,21.9616 107.756,20.4616 110.5,17C 111.448,16.5172 112.448,16.3505 113.5,16.5 Z"/></g>
<g><path style="opacity:0.51" fill="#40bf56" d="M 52.5,23.5 C 50.8828,22.962 49.2161,22.6287 47.5,22.5C 47.5,20.5 47.5,18.5 47.5,16.5C 51.8004,16.8153 53.467,19.1486 52.5,23.5 Z"/></g>
<g><path style="opacity:0.359" fill="#45c66a" d="M 100.5,17.5 C 102.625,18.3676 102.791,19.3676 101,20.5C 99.3167,19.8235 99.1501,18.8235 100.5,17.5 Z"/></g>
<g><path style="opacity:0.145" fill="#43c769" d="M 30.5,25.5 C 29.0857,23.4017 29.7524,22.4017 32.5,22.5C 32.7148,24.1788 32.0481,25.1788 30.5,25.5 Z"/></g>
<g><path style="opacity:0.556" fill="#40c15e" d="M 4.5,26.5 C 9.77041,27.4218 11.7704,30.4218 10.5,35.5C 7.9937,34.1084 5.4937,32.7751 3,31.5C 2.36001,29.4567 2.86001,27.7901 4.5,26.5 Z"/></g>
<g><path style="opacity:0.192" fill="#3fc054" d="M 93.5,41.5 C 96.1247,42.4657 96.1247,43.4657 93.5,44.5C 92.4376,43.5754 92.4376,42.5754 93.5,41.5 Z"/></g>
<g><path style="opacity:0.447" fill="#40bf53" d="M 100.5,43.5 C 104.5,42.8333 106.167,44.5 105.5,48.5C 101.5,49.1667 99.8333,47.5 100.5,43.5 Z"/></g>
<g><path style="opacity:0.125" fill="#4acc60" d="M 5.5,43.5 C 8.12472,44.4657 8.12472,45.4657 5.5,46.5C 4.43764,45.5754 4.43764,44.5754 5.5,43.5 Z"/></g>
<g><path style="opacity:0.063" fill="#47bd53" d="M 93.5,46.5 C 95.4646,46.9483 95.7979,47.9483 94.5,49.5C 93.6143,48.675 93.281,47.675 93.5,46.5 Z"/></g>
<g><path style="opacity:0.235" fill="#3ec34d" d="M 3.5,53.5 C 2.83333,53.5 2.16667,53.5 1.5,53.5C 1.6615,51.1756 2.82817,49.5089 5,48.5C 5.69238,49.0253 6.19238,49.6919 6.5,50.5C 5.00654,51.1411 4.00654,52.1411 3.5,53.5 Z"/></g>
<g><path style="opacity:0.353" fill="#3fc74d" d="M 98.5,49.5 C 100.625,50.3676 100.791,51.3676 99,52.5C 97.3167,51.8235 97.1501,50.8235 98.5,49.5 Z"/></g>
<g><path style="opacity:0.043" fill="#4abe4f" d="M 1.5,53.5 C 2.67358,55.3678 2.00691,56.3678 -0.5,56.5C -0.5,55.8333 -0.5,55.1667 -0.5,54.5C 0.166667,54.1667 0.833333,53.8333 1.5,53.5 Z"/></g>
<g><path style="opacity:0.016" fill="#44c050" d="M 95.5,53.5 C 98.1247,54.4657 98.1247,55.4657 95.5,56.5C 94.4376,55.5754 94.4376,54.5754 95.5,53.5 Z"/></g>
<g><path style="opacity:0.488" fill="#3fc154" d="M 3.5,61.5 C 6.47011,61.7458 7.80344,63.4124 7.5,66.5C 10.1268,66.2933 11.7935,67.46 12.5,70C 11.0308,73.8264 8.86411,74.3264 6,71.5C 5.50649,69.8659 5.33982,68.1992 5.5,66.5C 1.64877,65.8211 0.982104,64.1544 3.5,61.5 Z"/></g>
<g><path style="opacity:0.09" fill="#45ab4f" d="M 35.5,67.5 C 38.2933,67.74 38.7933,68.74 37,70.5C 35.9614,69.7562 35.4614,68.7562 35.5,67.5 Z"/></g>
<g><path style="opacity:0.02" fill="#36b758" d="M 28.5,72.5 C 29.1667,72.5 29.8333,72.5 30.5,72.5C 30.2627,76.2887 29.5961,76.2887 28.5,72.5 Z"/></g>
<g><path style="opacity:0.443" fill="#44c25a" d="M 18.5,76.5 C 16.0505,79.1346 14.3838,78.4679 13.5,74.5C 15.0453,73.5481 16.712,73.2148 18.5,73.5C 18.5,74.5 18.5,75.5 18.5,76.5 Z"/></g>
<g><path style="opacity:0.004" fill="#00ff00" d="M 27.5,78.5 C 27.8966,77.475 28.5632,77.3083 29.5,78C 28.9056,78.4643 28.2389,78.631 27.5,78.5 Z"/></g>
<g><path style="opacity:0.106" fill="#3db84b" d="M 60.5,76.5 C 61.675,76.281 62.675,76.6143 63.5,77.5C 61.9483,78.7979 60.9483,78.4646 60.5,76.5 Z"/></g>
<g><path style="opacity:0.008" fill="#61e669" d="M 74.5,78.5 C 74.0517,80.4646 73.0517,80.7979 71.5,79.5C 72.325,78.6143 73.325,78.281 74.5,78.5 Z"/></g>
<g><path style="opacity:0.333" fill="#40cb51" d="M 64.5,80.5 C 66.6246,81.3676 66.7913,82.3676 65,83.5C 63.3167,82.8235 63.1501,81.8235 64.5,80.5 Z"/></g>
</svg>
