<?xml version="1.0" encoding="UTF-8"?>
<!DOCTYPE svg PUBLIC "-//W3C//DTD SVG 1.1//EN" "http://www.w3.org/Graphics/SVG/1.1/DTD/svg11.dtd">
<svg xmlns="http://www.w3.org/2000/svg" version="1.1" width="100px" height="114px" style="shape-rendering:geometricPrecision; text-rendering:geometricPrecision; image-rendering:optimizeQuality; fill-rule:evenodd; clip-rule:evenodd" xmlns:xlink="http://www.w3.org/1999/xlink">
<g><path style="opacity:0.781" fill="#3fbf56" d="M 60.5,-0.5 C 61.1667,-0.5 61.8333,-0.5 62.5,-0.5C 63.1281,6.95139 60.7947,13.2847 55.5,18.5C 56.6283,19.2621 57.7949,19.9288 59,20.5C 63.0455,15.2216 68.2121,13.5549 74.5,15.5C 70.6943,19.0832 66.3609,20.9166 61.5,21C 58.7854,21.8747 57.4521,23.7081 57.5,26.5C 56.7611,26.631 56.0944,26.4643 55.5,26C 56.6405,25.2588 56.6405,24.4255 55.5,23.5C 56.0253,22.8076 56.6919,22.3076 57.5,22C 52.2798,23.1533 51.2798,25.9866 54.5,30.5C 56.8953,32.908 56.8953,35.2413 54.5,37.5C 55.7111,38.7202 55.7111,39.8869 54.5,41C 55.0944,41.4643 55.7611,41.631 56.5,41.5C 56.3433,42.8734 56.51,44.2068 57,45.5C 58.514,43.2344 60.6807,42.0677 63.5,42C 59.551,41.1932 59.551,40.6932 63.5,40.5C 63.6495,39.448 63.4828,38.448 63,37.5C 61.5074,39.5598 59.6741,39.8932 57.5,38.5C 59.4596,35.1725 62.1263,34.1725 65.5,35.5C 65.7496,36.9221 66.583,37.9221 68,38.5C 68.5323,35.7365 69.3657,33.0698 70.5,30.5C 71.325,29.6143 72.325,29.281 73.5,29.5C 72.3716,32.4383 71.2049,35.4383 70,38.5C 69.3333,39.8333 69.3333,41.1667 70,42.5C 70.5431,40.3686 71.3764,38.3686 72.5,36.5C 73.6223,37.6302 74.9557,38.2969 76.5,38.5C 75.3583,40.4331 73.6917,41.9331 71.5,43C 72.3567,43.6891 73.0233,44.5224 73.5,45.5C 71.8357,47.3068 70.1691,48.3068 68.5,48.5C 71.1667,50.1667 71.1667,51.8333 68.5,53.5C 69.2739,54.7112 70.1072,54.7112 71,53.5C 71.4828,54.448 71.6495,55.448 71.5,56.5C 69.6558,57.2039 69.1558,58.5372 70,60.5C 70.2784,59.5842 70.7784,58.9175 71.5,58.5C 71.7086,59.9217 72.2086,61.255 73,62.5C 73.3333,62.1667 73.6667,61.8333 74,61.5C 76.0263,62.8576 78.193,63.6909 80.5,64C 78.5979,65.6511 76.5979,65.9845 74.5,65C 76.8333,66.8333 79.1667,68.6667 81.5,70.5C 81.8333,70.3333 82.1667,70.1667 82.5,70C 81.8333,68.6667 81.1667,67.3333 80.5,66C 81.4303,64.8061 82.0969,63.4728 82.5,62C 83.7365,59.7521 85.4031,59.2521 87.5,60.5C 86.376,61.914 85.376,63.414 84.5,65C 85.3081,65.3076 85.9747,65.8076 86.5,66.5C 85.6518,68.4086 85.3184,70.4086 85.5,72.5C 87.288,72.2148 88.9547,72.5481 90.5,73.5C 91.7111,74.7202 91.7111,75.8869 90.5,77C 92.4019,78.7297 94.0686,80.563 95.5,82.5C 95.5,83.8333 94.8333,84.5 93.5,84.5C 93.4226,85.7498 92.756,86.5831 91.5,87C 93.6827,91.5675 94.6827,96.4008 94.5,101.5C 93.5,101.5 92.5,101.5 91.5,101.5C 93.3675,96.8727 92.7008,92.7061 89.5,89C 87.0751,88.7073 85.2418,87.5407 84,85.5C 82.2041,86.767 80.3707,86.767 78.5,85.5C 78.1928,86.8875 78.1928,88.5542 78.5,90.5C 83.6639,91.1043 86.3306,94.1043 86.5,99.5C 85.8333,100.833 85.1667,100.833 84.5,99.5C 83.7542,98.2638 83.4208,96.9305 83.5,95.5C 81.0314,96.0671 78.698,96.0671 76.5,95.5C 76.5774,94.2502 77.244,93.4169 78.5,93C 75.1965,92.7848 72.0299,92.6181 69,92.5C 68.5983,93.8721 68.0983,95.2054 67.5,96.5C 68.2458,97.7362 68.5792,99.0695 68.5,100.5C 67.1634,99.6851 66.1634,98.5185 65.5,97C 63.8034,96.6155 62.1368,96.7822 60.5,97.5C 59.7659,96.2921 59.4326,94.9587 59.5,93.5C 66.7308,93.7833 67.0641,92.9499 60.5,91C 59.7269,86.6876 57.3935,85.5209 53.5,87.5C 53.1667,84.8333 52.8333,84.8333 52.5,87.5C 51.1667,88.1667 51.1667,88.8333 52.5,89.5C 52.5386,90.7562 52.0386,91.7562 51,92.5C 49.5701,92.3062 48.0701,92.3062 46.5,92.5C 45.5,91.8333 44.5,91.1667 43.5,90.5C 42.8027,92.3845 41.8027,92.7178 40.5,91.5C 39.9041,92.7161 39.7374,94.0494 40,95.5C 37.8707,96.8627 37.3707,96.5294 38.5,94.5C 37.2713,93.7189 35.938,93.2189 34.5,93C 36.2746,91.5611 38.2746,90.5611 40.5,90C 35.7407,86.9183 33.2407,82.7516 33,77.5C 31.9148,78.2931 30.7481,78.9598 29.5,79.5C 27.2854,78.0442 25.2854,76.3776 23.5,74.5C 25.1897,73.8969 26.6897,72.8969 28,71.5C 28.3333,71.8333 28.6667,72.1667 29,72.5C 29.49,71.2068 29.6567,69.8734 29.5,68.5C 30.7736,67.8106 30.7736,66.9772 29.5,66C 28.2068,65.51 26.8734,65.3433 25.5,65.5C 25.3184,63.4086 25.6518,61.4086 26.5,59.5C 22.8333,57.3333 19.1667,55.1667 15.5,53C 9.35451,46.1901 7.85451,38.3567 11,29.5C 13.1695,24.495 15.3362,19.495 17.5,14.5C 17.8333,15.1667 18.1667,15.8333 18.5,16.5C 14.3473,23.4572 11.6807,30.9572 10.5,39C 10.8709,46.5962 14.5375,51.7628 21.5,54.5C 24.4525,56.4098 27.7858,57.4098 31.5,57.5C 31.6626,54.7623 31.1626,52.0957 30,49.5C 29,51.5 28,53.5 27,55.5C 26.1253,52.7854 24.2919,51.4521 21.5,51.5C 22.0965,49.602 22.0965,47.9354 21.5,46.5C 19.86,45.2099 19.36,43.5433 20,41.5C 21.9435,42.807 23.7768,42.807 25.5,41.5C 27.3,40.3948 28.4666,41.0614 29,43.5C 34.3465,40.0035 35.6799,35.6702 33,30.5C 32.3378,33.4166 30.5045,34.7499 27.5,34.5C 27.2267,32.549 27.8934,31.049 29.5,30C 28.8333,29.3333 28.1667,28.6667 27.5,28C 28.7376,28.0773 29.7376,27.9106 30.5,27.5C 29.2342,26.6376 27.9008,25.9709 26.5,25.5C 26.369,24.7611 26.5357,24.0944 27,23.5C 28.0113,24.3366 29.1779,24.67 30.5,24.5C 30.5,23.5 30.5,22.5 30.5,21.5C 32.9267,21.477 35.26,20.977 37.5,20C 36.5,19.1667 35.5,18.3333 34.5,17.5C 37.3205,15.4308 40.1538,13.4308 43,11.5C 44.0438,9.28523 44.7105,6.9519 45,4.5C 45.9907,5.42956 46.4907,6.59622 46.5,8C 45.9785,10.2101 45.3118,12.3768 44.5,14.5C 45.5314,16.3822 46.3647,18.3822 47,20.5C 48.0339,17.0143 49.3672,13.681 51,10.5C 52.7216,10.0385 54.555,9.87182 56.5,10C 60.7362,7.44521 62.0695,3.94521 60.5,-0.5 Z M 36.5,22.5 C 37.965,24.946 37.465,26.946 35,28.5C 33.8315,27.9915 32.9981,27.1581 32.5,26C 34.6898,24.9123 36.0231,23.7456 36.5,22.5 Z M 35.5,36.5 C 36.2674,37.172 36.9341,38.0053 37.5,39C 35.9387,39.1881 35.272,38.3547 35.5,36.5 Z M 65.5,39.5 C 69.0993,39.2619 69.4327,40.2619 66.5,42.5C 65.6143,41.675 65.281,40.675 65.5,39.5 Z M 33.5,47.5 C 29.7527,46.2916 29.586,44.6249 33,42.5C 33.5,42.8333 34,43.1667 34.5,43.5C 33.7542,44.7362 33.4208,46.0695 33.5,47.5 Z M 25.5,44.5 C 29.2762,44.4692 29.4429,45.1359 26,46.5C 24.3164,46.3166 24.1498,45.6499 25.5,44.5 Z M 60.5,45.5 C 63.0009,45.5109 63.1676,46.1776 61,47.5C 60.5357,46.9056 60.369,46.2389 60.5,45.5 Z M 65.5,45.5 C 66.6857,46.7054 66.6857,48.0387 65.5,49.5C 64.5084,49.6716 63.8417,49.3382 63.5,48.5C 64.4013,47.7095 65.0679,46.7095 65.5,45.5 Z M 33.5,47.5 C 35.4646,47.9483 35.7979,48.9483 34.5,50.5C 33.5,50 32.5,49.5 31.5,49C 32.4158,48.7216 33.0825,48.2216 33.5,47.5 Z M 62.5,48.5 C 62.3505,49.552 62.5172,50.552 63,51.5C 63.6708,50.7476 64.5041,50.4142 65.5,50.5C 65.6495,51.552 65.4828,52.552 65,53.5C 63.9887,52.6634 62.8221,52.33 61.5,52.5C 61.67,51.1779 61.3366,50.0113 60.5,49C 61.0944,48.5357 61.7611,48.369 62.5,48.5 Z M 39.5,55.5 C 36.9991,55.4891 36.8324,54.8224 39,53.5C 39.4643,54.0944 39.631,54.7611 39.5,55.5 Z M 31.5,57.5 C 33.1026,56.3228 34.436,56.4894 35.5,58C 33.9343,58.765 32.6009,58.5983 31.5,57.5 Z M 32.5,64.5 C 36.2573,65.38 36.2573,66.7134 32.5,68.5C 31.7084,67.3002 31.7084,65.9669 32.5,64.5 Z M 93.5,84.5 C 91.6505,85.8725 90.3172,85.3725 89.5,83C 91.3524,82.2274 92.6857,82.7274 93.5,84.5 Z"/></g>
<g><path style="opacity:0.044" fill="#3fc056" d="M 43.5,0.5 C 45.337,0.639452 45.6704,1.30612 44.5,2.5C 43.7025,2.04311 43.3691,1.37644 43.5,0.5 Z"/></g>
<g><path style="opacity:0.247" fill="#40c056" d="M 46.5,3.5 C 46.8966,2.47498 47.5632,2.30831 48.5,3C 47.9056,3.46434 47.2389,3.63101 46.5,3.5 Z"/></g>
<g><path style="opacity:0.476" fill="#3fc056" d="M 35.5,2.5 C 38.5058,5.49651 37.8391,7.16318 33.5,7.5C 33.3433,6.12656 33.51,4.79323 34,3.5C 35.1068,4.7119 35.6068,4.37857 35.5,2.5 Z"/></g>
<g><path style="opacity:0.596" fill="#40c056" d="M 66.5,10.5 C 66.3184,8.40864 66.6518,6.40864 67.5,4.5C 71.0144,2.7353 72.5144,3.7353 72,7.5C 70.7365,9.60703 68.9032,10.607 66.5,10.5 Z"/></g>
<g><path style="opacity:0.439" fill="#40c056" d="M 48.5,4.5 C 50.337,4.63945 50.6704,5.30612 49.5,6.5C 48.7025,6.04311 48.3691,5.37644 48.5,4.5 Z"/></g>
<g><path style="opacity:0.127" fill="#3fc056" d="M 53.5,5.5 C 55.337,5.63945 55.6704,6.30612 54.5,7.5C 53.7025,7.04311 53.3691,6.37644 53.5,5.5 Z"/></g>
<g><path style="opacity:0.663" fill="#40c056" d="M 28.5,6.5 C 29.8333,6.5 31.1667,6.5 32.5,6.5C 32.9842,9.56663 31.8175,11.5666 29,12.5C 25.897,10.888 25.7304,8.88796 28.5,6.5 Z"/></g>
<g><path style="opacity:0.157" fill="#40c056" d="M 47.5,7.5 C 48.8333,8.16667 48.8333,8.16667 47.5,7.5 Z"/></g>
<g><path style="opacity:0.039" fill="#40c056" d="M 64.5,8.5 C 65.8333,9.16667 65.8333,9.16667 64.5,8.5 Z"/></g>
<g><path style="opacity:0.104" fill="#40c056" d="M 66.5,10.5 C 66.1034,11.525 65.4368,11.6917 64.5,11C 65.0944,10.5357 65.7611,10.369 66.5,10.5 Z"/></g>
<g><path style="opacity:0.165" fill="#40c056" d="M 48.5,11.5 C 49.8333,12.1667 49.8333,12.1667 48.5,11.5 Z"/></g>
<g><path style="opacity:0.043" fill="#40c056" d="M 25.5,13.5 C 26.8333,14.1667 26.8333,14.1667 25.5,13.5 Z"/></g>
<g><path style="opacity:0.558" fill="#40c057" d="M 25.5,14.5 C 25.5,15.8333 25.5,17.1667 25.5,18.5C 20.2428,17.3037 20.2428,15.9704 25.5,14.5 Z"/></g>
<g><path style="opacity:0.527" fill="#40bf56" d="M 26.5,25.5 C 25.6522,26.625 24.6522,26.625 23.5,25.5C 23.44,24.9569 23.1067,24.6236 22.5,24.5C 21.4763,25.8532 20.143,26.5198 18.5,26.5C 18.5583,23.4409 19.8916,21.1076 22.5,19.5C 23.316,21.4315 24.6493,23.4315 26.5,25.5 Z"/></g>
<g><path style="opacity:0.016" fill="#40bf55" d="M 61.5,22.5 C 62.8333,23.1667 62.8333,23.1667 61.5,22.5 Z"/></g>
<g><path style="opacity:0.047" fill="#40c056" d="M 66.5,22.5 C 67.8333,23.1667 67.8333,23.1667 66.5,22.5 Z"/></g>
<g><path style="opacity:0.012" fill="#40bf57" d="M 59.5,23.5 C 60.525,23.8966 60.6917,24.5632 60,25.5C 59.5357,24.9056 59.369,24.2389 59.5,23.5 Z"/></g>
<g><path style="opacity:0.176" fill="#40c056" d="M 23.5,25.5 C 22.8333,26.1667 22.8333,26.1667 23.5,25.5 Z"/></g>
<g><path style="opacity:0.202" fill="#40c056" d="M 57.5,26.5 C 58.2389,26.369 58.9056,26.5357 59.5,27C 58.5632,27.6917 57.8966,27.525 57.5,26.5 Z"/></g>
<g><path style="opacity:0.275" fill="#40bf57" d="M 54.5,30.5 C 54.281,29.325 54.6143,28.325 55.5,27.5C 56.7979,29.0517 56.4646,30.0517 54.5,30.5 Z"/></g>
<g><path style="opacity:0.012" fill="#40bf56" d="M 20.5,29.5 C 20.8966,28.475 21.5632,28.3083 22.5,29C 21.9056,29.4643 21.2389,29.631 20.5,29.5 Z"/></g>
<g><path style="opacity:0.141" fill="#40c056" d="M 68.5,28.5 C 69.525,28.8966 69.6917,29.5632 69,30.5C 68.5357,29.9056 68.369,29.2389 68.5,28.5 Z"/></g>
<g><path style="opacity:0.043" fill="#40bf57" d="M 24.5,30.5 C 24.8966,29.475 25.5632,29.3083 26.5,30C 25.9056,30.4643 25.2389,30.631 24.5,30.5 Z"/></g>
<g><path style="opacity:0.514" fill="#40c056" d="M 75.5,30.5 C 76.7733,31.0768 76.7733,31.7435 75.5,32.5C 74.537,32.0302 74.537,31.3635 75.5,30.5 Z"/></g>
<g><path style="opacity:0.75" fill="#40c056" d="M 25.5,41.5 C 18.8689,41.3866 16.5356,38.2199 18.5,32C 20.3668,31.2888 21.8668,31.7888 23,33.5C 24.1445,36.0804 24.9778,38.7471 25.5,41.5 Z"/></g>
<g><path style="opacity:0.173" fill="#40c056" d="M 64.5,31.5 C 66.337,31.6395 66.6704,32.3061 65.5,33.5C 64.7025,33.0431 64.3691,32.3764 64.5,31.5 Z"/></g>
<g><path style="opacity:0.153" fill="#40c056" d="M 65.5,35.5 C 65.8966,34.475 66.5632,34.3083 67.5,35C 66.9056,35.4643 66.2389,35.631 65.5,35.5 Z"/></g>
<g><path style="opacity:0.027" fill="#40c056" d="M 76.5,34.5 C 77.8333,35.1667 77.8333,35.1667 76.5,34.5 Z"/></g>
<g><path style="opacity:0.102" fill="#40c056" d="M 80.5,35.5 C 81.8333,36.1667 81.8333,36.1667 80.5,35.5 Z"/></g>
<g><path style="opacity:0.039" fill="#40bf56" d="M 27.5,37.5 C 26.8333,36.1667 26.8333,36.1667 27.5,37.5 Z"/></g>
<g><path style="opacity:0.092" fill="#40bf56" d="M 30.5,36.5 C 31.7733,37.0768 31.7733,37.7435 30.5,38.5C 29.537,38.0302 29.537,37.3635 30.5,36.5 Z"/></g>
<g><path style="opacity:0.027" fill="#40bf55" d="M 78.5,36.5 C 79.8333,37.1667 79.8333,37.1667 78.5,36.5 Z"/></g>
<g><path style="opacity:0.012" fill="#40bf55" d="M 27.5,37.5 C 28.8333,38.1667 28.8333,38.1667 27.5,37.5 Z"/></g>
<g><path style="opacity:0.116" fill="#40c056" d="M 76.5,38.5 C 76.8417,37.6618 77.5084,37.3284 78.5,37.5C 78.1583,38.3382 77.4916,38.6716 76.5,38.5 Z"/></g>
<g><path style="opacity:0.348" fill="#40bf56" d="M 82.5,38.5 C 85.5476,38.494 86.0476,39.494 84,41.5C 82.9614,40.7562 82.4614,39.7562 82.5,38.5 Z"/></g>
<g><path style="opacity:0.274" fill="#40bf56" d="M 56.5,41.5 C 57.2506,40.4265 58.2506,40.2599 59.5,41C 58.6477,42.7284 57.6477,42.895 56.5,41.5 Z"/></g>
<g><path style="opacity:0.016" fill="#40bf55" d="M 75.5,41.5 C 76.8333,42.1667 76.8333,42.1667 75.5,41.5 Z"/></g>
<g><path style="opacity:0.02" fill="#40c155" d="M 79.5,41.5 C 80.8333,42.1667 80.8333,42.1667 79.5,41.5 Z"/></g>
<g><path style="opacity:0.441" fill="#40c056" d="M 79.5,42.5 C 79.5,43.5 79.5,44.5 79.5,45.5C 72.8946,45.8442 72.8946,44.8442 79.5,42.5 Z"/></g>
<g><path style="opacity:0.331" fill="#40bf56" d="M 21.5,46.5 C 21.1034,47.525 20.4368,47.6917 19.5,47C 20.0944,46.5357 20.7611,46.369 21.5,46.5 Z"/></g>
<g><path style="opacity:0.012" fill="#40bf56" d="M 16.5,47.5 C 17.8333,48.1667 17.8333,48.1667 16.5,47.5 Z"/></g>
<g><path style="opacity:0.086" fill="#40c056" d="M 62.5,48.5 C 62.8333,48.5 63.1667,48.5 63.5,48.5C 63.8417,49.3382 64.5084,49.6716 65.5,49.5C 65.5,49.8333 65.5,50.1667 65.5,50.5C 64.5041,50.4142 63.6708,50.7476 63,51.5C 62.5172,50.552 62.3505,49.552 62.5,48.5 Z"/></g>
<g><path style="opacity:0.659" fill="#40c056" d="M 77.5,48.5 C 79.1667,48.5 80.8333,48.5 82.5,48.5C 82.2204,52.2253 80.2204,53.392 76.5,52C 77.3366,50.9887 77.67,49.8221 77.5,48.5 Z"/></g>
<g><path style="opacity:0.033" fill="#40bf56" d="M 71.5,50.5 C 71.8966,49.475 72.5632,49.3083 73.5,50C 72.9056,50.4643 72.2389,50.631 71.5,50.5 Z"/></g>
<g><path style="opacity:0.033" fill="#40bf56" d="M 85.5,50.5 C 85.8966,49.475 86.5632,49.3083 87.5,50C 86.9056,50.4643 86.2389,50.631 85.5,50.5 Z"/></g>
<g><path style="opacity:0.043" fill="#40c056" d="M 84.5,51.5 C 85.8333,52.1667 85.8333,52.1667 84.5,51.5 Z"/></g>
<g><path style="opacity:0.125" fill="#40c056" d="M 21.5,53.5 C 22.8333,54.1667 22.8333,54.1667 21.5,53.5 Z"/></g>
<g><path style="opacity:0.359" fill="#40bf56" d="M 76.5,54.5 C 75.1667,54.8333 75.1667,55.1667 76.5,55.5C 76.1269,58.8494 74.4602,59.8494 71.5,58.5C 71.5,57.8333 71.5,57.1667 71.5,56.5C 72.404,55.791 72.7373,54.791 72.5,53.5C 74.099,53.2322 75.4324,53.5655 76.5,54.5 Z"/></g>
<g><path style="opacity:0.02" fill="#40c056" d="M 84.5,53.5 C 85.8333,54.1667 85.8333,54.1667 84.5,53.5 Z"/></g>
<g><path style="opacity:0.067" fill="#40c056" d="M 90.5,53.5 C 91.525,53.8966 91.6917,54.5632 91,55.5C 90.5357,54.9056 90.369,54.2389 90.5,53.5 Z"/></g>
<g><path style="opacity:0.114" fill="#40c056" d="M 76.5,54.5 C 77.1667,54.5 77.5,54.8333 77.5,55.5C 77.1667,55.1667 76.8333,54.8333 76.5,54.5 Z"/></g>
<g><path style="opacity:0.125" fill="#40c056" d="M 80.5,54.5 C 81.8333,55.1667 81.8333,55.1667 80.5,54.5 Z"/></g>
<g><path style="opacity:0.059" fill="#40bf56" d="M 77.5,55.5 C 78.9217,55.7086 80.255,56.2086 81.5,57C 79.6476,57.7726 78.3143,57.2726 77.5,55.5 Z"/></g>
<g><path style="opacity:0.245" fill="#40c056" d="M 21.5,61.5 C 22.525,61.8966 22.6917,62.5632 22,63.5C 21.5357,62.9056 21.369,62.2389 21.5,61.5 Z"/></g>
<g><path style="opacity:0.012" fill="#40bf55" d="M 80.5,61.5 C 81.8333,62.1667 81.8333,62.1667 80.5,61.5 Z"/></g>
<g><path style="opacity:0.338" fill="#40c056" d="M 16.5,64.5 C 18.337,64.6395 18.6704,65.3061 17.5,66.5C 16.7025,66.0431 16.3691,65.3764 16.5,64.5 Z"/></g>
<g><path style="opacity:0.254" fill="#40c056" d="M 29.5,68.5 C 23.9192,67.3139 23.5859,66.8139 28.5,67C 29.056,67.3826 29.3893,67.8826 29.5,68.5 Z"/></g>
<g><path style="opacity:0.131" fill="#40c056" d="M 19.5,72.5 C 20.525,72.8966 20.6917,73.5632 20,74.5C 19.5357,73.9056 19.369,73.2389 19.5,72.5 Z"/></g>
<g><path style="opacity:0.215" fill="#3fbf56" d="M 23.5,74.5 C 21.5373,76.7195 20.5373,79.0528 20.5,81.5C 19.0501,78.07 20.0501,75.7366 23.5,74.5 Z"/></g>
<g><path style="opacity:0.043" fill="#40c056" d="M 23.5,77.5 C 24.8333,78.1667 24.8333,78.1667 23.5,77.5 Z"/></g>
<g><path style="opacity:0.067" fill="#40c056" d="M 95.5,80.5 C 95.8966,79.475 96.5632,79.3083 97.5,80C 96.9056,80.4643 96.2389,80.631 95.5,80.5 Z"/></g>
<g><path style="opacity:0.188" fill="#40c056" d="M 95.5,81.5 C 96.8333,82.1667 96.8333,82.1667 95.5,81.5 Z"/></g>
<g><path style="opacity:0.313" fill="#40c056" d="M 99.5,81.5 C 99.5,82.1667 99.5,82.8333 99.5,83.5C 96.8333,82.8333 96.8333,82.1667 99.5,81.5 Z"/></g>
<g><path style="opacity:0.035" fill="#40c055" d="M 29.5,87.5 C 30.8333,88.1667 30.8333,88.1667 29.5,87.5 Z"/></g>
<g><path style="opacity:0.365" fill="#40c056" d="M 52.5,87.5 C 52.8333,87.5 53.1667,87.5 53.5,87.5C 53.6716,88.4916 53.3382,89.1583 52.5,89.5C 52.5,88.8333 52.5,88.1667 52.5,87.5 Z"/></g>
<g><path style="opacity:0.418" fill="#40c056" d="M 99.5,87.5 C 99.5,88.1667 99.5,88.8333 99.5,89.5C 98.3523,90.895 97.3523,90.7284 96.5,89C 97.2438,87.9614 98.2438,87.4614 99.5,87.5 Z"/></g>
<g><path style="opacity:0.243" fill="#40c056" d="M 57.5,91.5 C 58.8333,92.1667 58.8333,92.1667 57.5,91.5 Z"/></g>
<g><path style="opacity:0.199" fill="#40c056" d="M 55.5,93.5 C 57.337,93.6395 57.6704,94.3061 56.5,95.5C 55.7025,95.0431 55.3691,94.3764 55.5,93.5 Z"/></g>
<g><path style="opacity:0.376" fill="#40c056" d="M 50.5,95.5 C 50.8966,94.475 51.5632,94.3083 52.5,95C 51.9056,95.4643 51.2389,95.631 50.5,95.5 Z"/></g>
<g><path style="opacity:0.066" fill="#40bf57" d="M 43.5,95.5 C 45.337,95.6395 45.6704,96.3061 44.5,97.5C 43.7025,97.0431 43.3691,96.3764 43.5,95.5 Z"/></g>
<g><path style="opacity:0.145" fill="#40c056" d="M 69.5,95.5 C 70.8333,96.1667 70.8333,96.1667 69.5,95.5 Z"/></g>
<g><path style="opacity:0.027" fill="#40c056" d="M 73.5,95.5 C 74.8333,96.1667 74.8333,96.1667 73.5,95.5 Z"/></g>
<g><path style="opacity:0.094" fill="#40c056" d="M 76.5,95.5 C 75.8333,96.1667 75.8333,96.1667 76.5,95.5 Z"/></g>
<g><path style="opacity:0.176" fill="#40c056" d="M 60.5,97.5 C 59.8333,98.1667 59.8333,98.1667 60.5,97.5 Z"/></g>
<g><path style="opacity:0.356" fill="#40c056" d="M 47.5,98.5 C 49.337,98.6395 49.6704,99.3061 48.5,100.5C 47.7025,100.043 47.3691,99.3764 47.5,98.5 Z"/></g>
<g><path style="opacity:0.082" fill="#40c056" d="M 55.5,99.5 C 56.8333,100.167 56.8333,100.167 55.5,99.5 Z"/></g>
<g><path style="opacity:0.231" fill="#40c056" d="M 68.5,100.5 C 70.337,100.639 70.6704,101.306 69.5,102.5C 68.7025,102.043 68.3691,101.376 68.5,100.5 Z"/></g>
<g><path style="opacity:0.53" fill="#40c056" d="M 79.5,100.5 C 81.337,100.639 81.6704,101.306 80.5,102.5C 79.7025,102.043 79.3691,101.376 79.5,100.5 Z"/></g>
<g><path style="opacity:0.618" fill="#40c056" d="M 52.5,101.5 C 53.5,101.5 54.5,101.5 55.5,101.5C 55.8333,104.5 54.5,105.833 51.5,105.5C 51.4326,104.041 51.7659,102.708 52.5,101.5 Z"/></g>
<g><path style="opacity:0.166" fill="#3fbf56" d="M 89.5,102.5 C 92.0009,102.511 92.1676,103.178 90,104.5C 89.5357,103.906 89.369,103.239 89.5,102.5 Z"/></g>
<g><path style="opacity:0.161" fill="#40c056" d="M 85.5,103.5 C 86.8333,104.167 86.8333,104.167 85.5,103.5 Z"/></g>
<g><path style="opacity:0.141" fill="#40c056" d="M 89.5,106.5 C 88.8333,105.167 88.8333,105.167 89.5,106.5 Z"/></g>
<g><path style="opacity:0.039" fill="#40c056" d="M 89.5,106.5 C 90.8333,107.167 90.8333,107.167 89.5,106.5 Z"/></g>
<g><path style="opacity:0.452" fill="#40bf56" d="M 82.5,113.5 C 81.1667,113.5 79.8333,113.5 78.5,113.5C 78.238,112.022 78.5713,110.689 79.5,109.5C 81.5499,110.077 82.5499,111.41 82.5,113.5 Z"/></g>
</svg>
